<svg width="67" height="81" viewBox="0 0 67 81" fill="none" xmlns="http://www.w3.org/2000/svg">
<g clip-path="url(#clip0_1_9)">
<path d="M0 14.913C0 9.43822 4.43822 5 9.91304 5H57.087C62.5618 5 67 9.43822 67 14.913V47.5C67 66.0015 52.0015 81 33.5 81C14.9985 81 0 66.0015 0 47.5V14.913Z" fill="#FED935"/>
<path d="M9.91309 3.5H57.0869C60.6287 3.5 63.5 6.37126 63.5 9.91309V42.5C63.5 59.0685 50.0685 72.5 33.5 72.5C16.9315 72.5 3.5 59.0685 3.5 42.5V9.91309C3.5 6.37126 6.37126 3.5 9.91309 3.5Z" fill="#FED935"/>
<path d="M9.91309 3.5H57.0869C60.6287 3.5 63.5 6.37126 63.5 9.91309V42.5C63.5 59.0685 50.0685 72.5 33.5 72.5C16.9315 72.5 3.5 59.0685 3.5 42.5V9.91309C3.5 6.37126 6.37126 3.5 9.91309 3.5Z" stroke="#FFED48" stroke-width="7"/>
<path d="M31.0611 23.1353C32.8135 21.862 35.1865 21.862 36.9389 23.1353L47.229 30.6115C48.9815 31.8847 49.7148 34.1415 49.0454 36.2016L45.1149 48.2984C44.4455 50.3585 42.5258 51.7533 40.3596 51.7533H27.6404C25.4742 51.7533 23.5545 50.3585 22.8851 48.2984L18.9546 36.2016C18.2852 34.1415 19.0185 31.8847 20.771 30.6115L31.0611 23.1353Z" fill="#FFA81B"/>
<rect x="54.2627" y="-11.1641" width="38.4571" height="96.7701" transform="rotate(45 54.2627 -11.1641)" fill="white" fill-opacity="0.4"/>
</g>
<defs>
<clipPath id="clip0_1_9">
<path d="M0 10.0096C0 4.48147 4.48147 0 10.0096 0H57.0526C62.5464 0 67 4.45359 67 9.94737V47.5C67 66.0015 52.0015 81 33.5 81C14.9985 81 0 66.0015 0 47.5V10.0096Z" fill="white"/>
</clipPath>
</defs>
</svg>
