<svg width="67" height="81" viewBox="0 0 67 81" fill="none" xmlns="http://www.w3.org/2000/svg">
<g clip-path="url(#clip0_1_12)">
<path d="M0 14.913C0 9.43822 4.43822 5 9.91304 5H57.087C62.5618 5 67 9.43822 67 14.913V47.5C67 66.0015 52.0015 81 33.5 81C14.9985 81 0 66.0015 0 47.5V14.913Z" fill="#A2BAD7"/>
<path d="M9.91309 3.5H57.0869C60.6287 3.5 63.5 6.37126 63.5 9.91309V42.5C63.5 59.0685 50.0685 72.5 33.5 72.5C16.9315 72.5 3.5 59.0685 3.5 42.5V9.91309C3.5 6.37126 6.37126 3.5 9.91309 3.5Z" fill="#A2BAD7"/>
<path d="M9.91309 3.5H57.0869C60.6287 3.5 63.5 6.37126 63.5 9.91309V42.5C63.5 59.0685 50.0685 72.5 33.5 72.5C16.9315 72.5 3.5 59.0685 3.5 42.5V9.91309C3.5 6.37126 6.37126 3.5 9.91309 3.5Z" stroke="#C3E1F8" stroke-width="7"/>
<path d="M30.4645 24.5355C32.4171 22.5829 35.5829 22.5829 37.5355 24.5355L47.4645 34.4645C49.4171 36.4171 49.4171 39.5829 47.4645 41.5355L37.5355 51.4645C35.5829 53.4171 32.4171 53.4171 30.4645 51.4645L20.5355 41.5355C18.5829 39.5829 18.5829 36.4171 20.5355 34.4645L30.4645 24.5355Z" fill="#547BBF"/>
<rect x="54.2627" y="-11.1641" width="38.4571" height="96.7701" transform="rotate(45 54.2627 -11.1641)" fill="white" fill-opacity="0.4"/>
</g>
<defs>
<clipPath id="clip0_1_12">
<path d="M0 10.0096C0 4.48147 4.48147 0 10.0096 0H57.0526C62.5464 0 67 4.45359 67 9.94737V47.5C67 66.0015 52.0015 81 33.5 81C14.9985 81 0 66.0015 0 47.5V10.0096Z" fill="white"/>
</clipPath>
</defs>
</svg>
