<svg width="67" height="81" viewBox="0 0 67 81" fill="none" xmlns="http://www.w3.org/2000/svg">
<g clip-path="url(#clip0_1_18)">
<path d="M0 14.913C0 9.43822 4.43822 5 9.91304 5H57.087C62.5618 5 67 9.43822 67 14.913V47.5C67 66.0015 52.0015 81 33.5 81C14.9985 81 0 66.0015 0 47.5V14.913Z" fill="#F6B23D"/>
<path d="M9.91309 3.5H57.0869C60.6287 3.5 63.5 6.37126 63.5 9.91309V42.5C63.5 59.0685 50.0685 72.5 33.5 72.5C16.9315 72.5 3.5 59.0685 3.5 42.5V9.91309C3.5 6.37126 6.37126 3.5 9.91309 3.5Z" fill="#F6B23D"/>
<path d="M9.91309 3.5H57.0869C60.6287 3.5 63.5 6.37126 63.5 9.91309V42.5C63.5 59.0685 50.0685 72.5 33.5 72.5C16.9315 72.5 3.5 59.0685 3.5 42.5V9.91309C3.5 6.37126 6.37126 3.5 9.91309 3.5Z" stroke="#FFDD35" stroke-width="7"/>
<path d="M29.6699 26.5C31.5944 23.1667 36.4056 23.1667 38.3301 26.5L46.1244 40C48.0489 43.3333 45.6432 47.5 41.7942 47.5H26.2058C22.3568 47.5 19.9511 43.3333 21.8756 40L29.6699 26.5Z" fill="#CE840E"/>
<rect x="54.2627" y="-11.1641" width="38.4571" height="96.7701" transform="rotate(45 54.2627 -11.1641)" fill="white" fill-opacity="0.4"/>
</g>
<defs>
<clipPath id="clip0_1_18">
<path d="M0 10.0096C0 4.48147 4.48147 0 10.0096 0H57.0526C62.5464 0 67 4.45359 67 9.94737V47.5C67 66.0015 52.0015 81 33.5 81C14.9985 81 0 66.0015 0 47.5V10.0096Z" fill="white"/>
</clipPath>
</defs>
</svg>
